<svg xmlns="http://www.w3.org/2000/svg" width="48" height="48" viewBox="0 0 24 24"><defs><clipPath id="c"><path d="M18 3l-2 18h-9l-2 -18Z"/></clipPath></defs><path fill="#FAE108" fill-opacity=".38" d="M18 3l-2 18h-9l-2 -18Z"/><g clip-path="url(#c)"><path fill="#FAE108" fill-opacity=".55" d="M18 7c-2 0 -3 2 -5 2c-2 0 -3 -2 -5 -2c-2 0 -3 2 -5 2c-2 0 -3 -2 -5 -2c-2 0 -3 2 -5 2v15h25Z"/><path fill="none" stroke="#22303f" stroke-width="1.4" d="M18 7c-2 0 -3 2 -5 2c-2 0 -3 -2 -5 -2c-2 0 -3 2 -5 2c-2 0 -3 -2 -5 -2c-2 0 -3 2 -5 2"/></g><path fill="none" stroke="#22303f" stroke-width="2" stroke-linecap="round" stroke-linejoin="round" d="M18 3l-2 18h-9l-2 -18Z"/></svg>
